<svg width="467" height="137" viewBox="0 0 467 137" fill="none" xmlns="http://www.w3.org/2000/svg">
<path d="M56.232 136.72C44.808 136.72 34.872 134.656 26.424 130.528C17.976 126.304 11.496 120.352 6.984 112.672C2.472 104.992 0.216 96.064 0.216 85.888C0.216 71.776 2.856 59.248 8.136 48.304C13.512 37.36 20.76 28.912 29.88 22.96C39 16.912 49.128 13.888 60.264 13.888C70.632 13.888 78.504 16.576 83.88 21.952C89.256 27.232 91.944 34.24 91.944 42.976C91.944 48.832 90.888 53.536 88.776 57.088C86.76 60.64 83.832 62.416 79.992 62.416C77.304 62.416 75.192 61.792 73.656 60.544C72.12 59.296 71.352 57.472 71.352 55.072C71.352 54.208 71.544 52.624 71.928 50.32C72.504 47.44 72.792 45.136 72.792 43.408C72.792 34.672 68.136 30.304 58.824 30.304C52.488 30.304 46.44 32.368 40.68 36.496C34.92 40.624 30.264 46.72 26.712 54.784C23.16 62.752 21.384 72.256 21.384 83.296C21.384 94.816 24.6 103.744 31.032 110.08C37.464 116.32 46.968 119.44 59.544 119.44C65.784 119.44 72.072 118.672 78.408 117.136C84.84 115.504 91.944 113.056 99.72 109.792C101.16 109.216 102.36 108.928 103.32 108.928C104.856 108.928 106.008 109.504 106.776 110.656C107.544 111.808 107.928 113.296 107.928 115.12C107.928 120.976 104.76 125.296 98.424 128.08C91.608 131.056 84.504 133.264 77.112 134.704C69.816 136.048 62.856 136.72 56.232 136.72ZM151.207 103.888C152.455 103.888 153.415 104.464 154.087 105.616C154.855 106.768 155.239 108.352 155.239 110.368C155.239 114.208 154.327 117.184 152.503 119.296C148.375 124.384 143.863 128.56 138.967 131.824C134.167 135.088 128.695 136.72 122.551 136.72C114.103 136.72 107.815 132.88 103.687 125.2C99.6548 117.52 97.6388 107.584 97.6388 95.392C97.6388 83.68 99.1268 70.336 102.103 55.36C105.175 40.384 109.639 27.52 115.495 16.768C121.447 6.01599 128.503 0.639992 136.663 0.639992C141.271 0.639992 144.871 2.79999 147.463 7.11999C150.151 11.344 151.495 17.44 151.495 25.408C151.495 36.832 148.327 50.08 141.991 65.152C135.655 80.224 127.063 95.152 116.215 109.936C116.887 113.872 117.991 116.704 119.527 118.432C121.063 120.064 123.079 120.88 125.575 120.88C129.511 120.88 132.967 119.776 135.943 117.568C138.919 115.264 142.711 111.376 147.319 105.904C148.471 104.56 149.767 103.888 151.207 103.888ZM133.495 14.896C131.287 14.896 128.791 18.88 126.007 26.848C123.223 34.816 120.775 44.704 118.663 56.512C116.551 68.32 115.399 79.648 115.207 90.496C122.023 79.264 127.447 68.032 131.479 56.8C135.511 45.472 137.527 35.152 137.527 25.84C137.527 18.544 136.183 14.896 133.495 14.896ZM162.464 59.392C158.432 59.392 155.408 58.48 153.392 56.656C151.376 54.736 150.368 52.096 150.368 48.736C150.368 45.376 151.664 42.592 154.256 40.384C156.944 38.08 160.256 36.928 164.192 36.928C167.744 36.928 170.624 37.792 172.832 39.52C175.04 41.248 176.144 43.696 176.144 46.864C176.144 50.704 174.896 53.776 172.4 56.08C169.904 58.288 166.592 59.392 162.464 59.392ZM161.312 136.72C155.072 136.72 150.512 134.512 147.632 130.096C144.848 125.68 143.456 119.824 143.456 112.528C143.456 108.208 143.984 102.688 145.04 95.968C146.192 89.152 147.632 82.816 149.36 76.96C150.224 73.888 151.376 71.776 152.816 70.624C154.256 69.472 156.56 68.896 159.728 68.896C164.624 68.896 167.072 70.528 167.072 73.792C167.072 76.192 166.16 81.76 164.336 90.496C162.032 101.056 160.88 108.208 160.88 111.952C160.88 114.832 161.264 117.04 162.032 118.576C162.8 120.112 164.096 120.88 165.92 120.88C167.648 120.88 169.808 119.68 172.4 117.28C174.992 114.88 178.448 111.088 182.768 105.904C183.92 104.56 185.216 103.888 186.656 103.888C187.904 103.888 188.864 104.464 189.536 105.616C190.304 106.768 190.688 108.352 190.688 110.368C190.688 114.208 189.776 117.184 187.952 119.296C178.448 130.912 169.568 136.72 161.312 136.72ZM189.261 136.72C185.613 136.72 183.021 134.8 181.485 130.96C180.045 127.12 179.325 120.976 179.325 112.528C179.325 100.048 181.101 88.192 184.653 76.96C185.517 74.176 186.909 72.16 188.829 70.912C190.845 69.568 193.629 68.896 197.181 68.896C199.101 68.896 200.445 69.136 201.213 69.616C201.981 70.096 202.365 71.008 202.365 72.352C202.365 73.888 201.645 77.344 200.205 82.72C199.245 86.56 198.477 89.92 197.901 92.8C197.325 95.584 196.845 99.088 196.461 103.312C199.053 95.824 202.125 89.488 205.677 84.304C209.325 79.12 213.021 75.28 216.765 72.784C220.605 70.192 224.205 68.896 227.565 68.896C230.925 68.896 233.277 69.664 234.621 71.2C236.061 72.736 236.781 75.088 236.781 78.256C236.781 81.328 235.869 86.896 234.045 94.96C233.277 98.416 232.749 101.008 232.461 102.736C237.261 90.928 242.589 82.336 248.445 76.96C254.301 71.584 259.773 68.896 264.861 68.896C271.101 68.896 274.221 72.016 274.221 78.256C274.221 82 273.165 88.768 271.053 98.56C269.229 106.912 268.317 112.432 268.317 115.12C268.317 118.96 269.709 120.88 272.493 120.88C274.413 120.88 276.669 119.728 279.261 117.424C281.949 115.024 285.501 111.184 289.917 105.904C291.069 104.56 292.365 103.888 293.805 103.888C295.053 103.888 296.013 104.464 296.685 105.616C297.453 106.768 297.837 108.352 297.837 110.368C297.837 114.208 296.925 117.184 295.101 119.296C290.973 124.384 286.509 128.56 281.709 131.824C277.005 135.088 271.629 136.72 265.581 136.72C260.685 136.72 256.989 135.328 254.493 132.544C251.997 129.664 250.749 125.536 250.749 120.16C250.749 117.472 251.421 112.672 252.765 105.76C254.013 99.712 254.637 95.536 254.637 93.232C254.637 91.696 254.109 90.928 253.053 90.928C251.805 90.928 250.029 92.56 247.725 95.824C245.421 98.992 243.117 103.216 240.813 108.496C238.509 113.776 236.637 119.344 235.197 125.2C234.141 129.808 232.893 132.88 231.453 134.416C230.109 135.952 227.901 136.72 224.829 136.72C221.661 136.72 219.261 135.232 217.629 132.256C216.093 129.184 215.325 125.488 215.325 121.168C215.325 117.52 215.805 112.24 216.765 105.328C217.533 99.184 217.917 95.152 217.917 93.232C217.917 91.696 217.389 90.928 216.333 90.928C214.893 90.928 213.069 92.656 210.861 96.112C208.653 99.568 206.493 103.984 204.381 109.36C202.365 114.736 200.733 120.016 199.485 125.2C198.429 129.712 197.181 132.784 195.741 134.416C194.397 135.952 192.237 136.72 189.261 136.72ZM362.801 91.792C364.049 91.792 365.009 92.416 365.681 93.664C366.353 94.912 366.689 96.496 366.689 98.416C366.689 100.816 366.353 102.688 365.681 104.032C365.009 105.28 363.953 106.144 362.513 106.624C356.753 108.64 350.417 109.792 343.505 110.08C341.585 118.048 337.937 124.48 332.561 129.376C327.281 134.272 321.425 136.72 314.993 136.72C305.297 136.72 298.241 133.024 293.825 125.632C289.409 118.24 287.201 107.536 287.201 93.52C287.201 81.136 288.737 67.696 291.809 53.2C294.881 38.608 299.345 26.224 305.201 16.048C311.153 5.77599 318.209 0.639992 326.369 0.639992C330.785 0.639992 334.337 2.55999 337.025 6.39999C339.713 10.144 341.057 15.04 341.057 21.088C341.057 28.96 339.569 36.784 336.593 44.56C333.617 52.336 328.673 60.496 321.761 69.04C328.193 69.52 333.425 72.208 337.457 77.104C341.489 81.904 343.889 87.856 344.657 94.96C349.169 94.672 354.545 93.712 360.785 92.08C361.361 91.888 362.033 91.792 362.801 91.792ZM323.057 14.896C321.137 14.896 319.025 17.776 316.721 23.536C314.513 29.2 312.449 36.928 310.529 46.72C308.609 56.512 307.169 67.216 306.209 78.832C312.545 67.216 317.585 56.992 321.329 48.16C325.169 39.232 327.089 31.312 327.089 24.4C327.089 21.328 326.705 18.976 325.937 17.344C325.265 15.712 324.305 14.896 323.057 14.896ZM315.569 121.456C318.545 121.456 321.185 120.208 323.489 117.712C325.793 115.216 327.329 111.616 328.097 106.912C325.121 104.896 322.817 102.256 321.185 98.992C319.649 95.728 318.881 92.272 318.881 88.624C318.881 87.28 319.073 85.456 319.457 83.152H319.025C315.089 83.152 311.777 85.12 309.089 89.056C306.497 92.896 305.201 98.08 305.201 104.608C305.201 110.08 306.209 114.256 308.225 117.136C310.337 120.016 312.785 121.456 315.569 121.456ZM418.48 103.888C419.728 103.888 420.688 104.464 421.36 105.616C422.128 106.768 422.512 108.352 422.512 110.368C422.512 114.208 421.6 117.184 419.776 119.296C416.224 123.616 411.184 127.6 404.656 131.248C398.224 134.896 391.312 136.72 383.92 136.72C373.84 136.72 366.016 133.984 360.448 128.512C354.88 123.04 352.096 115.552 352.096 106.048C352.096 99.424 353.488 93.28 356.272 87.616C359.056 81.856 362.896 77.296 367.792 73.936C372.784 70.576 378.4 68.896 384.64 68.896C390.208 68.896 394.672 70.576 398.032 73.936C401.392 77.2 403.072 81.664 403.072 87.328C403.072 93.952 400.672 99.664 395.872 104.464C391.168 109.168 383.152 112.912 371.824 115.696C374.224 120.112 378.784 122.32 385.504 122.32C389.824 122.32 394.72 120.832 400.192 117.856C405.76 114.784 410.56 110.8 414.592 105.904C415.744 104.56 417.04 103.888 418.48 103.888ZM382.192 83.008C378.64 83.008 375.616 85.072 373.12 89.2C370.72 93.328 369.52 98.32 369.52 104.176V104.464C375.184 103.12 379.648 101.104 382.912 98.416C386.176 95.728 387.808 92.608 387.808 89.056C387.808 87.232 387.28 85.792 386.224 84.736C385.264 83.584 383.92 83.008 382.192 83.008ZM462.339 108.208C463.587 108.208 464.547 108.784 465.219 109.936C465.987 111.088 466.371 112.672 466.371 114.688C466.371 118.144 465.555 121.12 463.923 123.616C461.235 127.744 457.683 130.96 453.267 133.264C448.947 135.568 443.763 136.72 437.715 136.72C428.499 136.72 421.347 133.984 416.259 128.512C411.171 122.944 408.627 115.456 408.627 106.048C408.627 99.424 410.019 93.28 412.803 87.616C415.587 81.856 419.427 77.296 424.323 73.936C429.315 70.576 434.931 68.896 441.171 68.896C446.739 68.896 451.203 70.576 454.563 73.936C457.923 77.2 459.603 81.664 459.603 87.328C459.603 93.952 457.203 99.664 452.403 104.464C447.699 109.168 439.635 112.912 428.211 115.696C430.515 120.112 434.403 122.32 439.875 122.32C443.811 122.32 447.027 121.408 449.523 119.584C452.115 117.76 455.091 114.688 458.451 110.368C459.603 108.928 460.899 108.208 462.339 108.208ZM438.723 83.008C435.171 83.008 432.147 85.072 429.651 89.2C427.251 93.328 426.051 98.32 426.051 104.176V104.464C431.715 103.12 436.179 101.104 439.443 98.416C442.707 95.728 444.339 92.608 444.339 89.056C444.339 87.232 443.811 85.792 442.755 84.736C441.795 83.584 440.451 83.008 438.723 83.008Z" fill="#111111"/>
</svg>
